<svg width="24" height="24" viewBox="0 0 24 24" fill="none" xmlns="http://www.w3.org/2000/svg">
<mask id="mask0_244_1251" style="mask-type:alpha" maskUnits="userSpaceOnUse" x="0" y="0" width="24" height="24">
<rect width="24" height="24" fill="#D9D9D9"/>
</mask>
<g mask="url(#mask0_244_1251)">
<path d="M12.0022 15.5769C13.1353 15.5769 14.0977 15.1803 14.8894 14.3871C15.681 13.5939 16.0769 12.6308 16.0769 11.4977C16.0769 10.3646 15.6803 9.40224 14.8871 8.61058C14.0939 7.81891 13.1308 7.42308 11.9977 7.42308C10.8646 7.42308 9.90222 7.81966 9.11055 8.61282C8.31889 9.40601 7.92305 10.3692 7.92305 11.5023C7.92305 12.6353 8.31964 13.5977 9.1128 14.3894C9.90599 15.181 10.8691 15.5769 12.0022 15.5769ZM12 14.2C11.25 14.2 10.6125 13.9375 10.0875 13.4125C9.56245 12.8875 9.29995 12.25 9.29995 11.5C9.29995 10.75 9.56245 10.1125 10.0875 9.58748C10.6125 9.06248 11.25 8.79998 12 8.79998C12.75 8.79998 13.3875 9.06248 13.9125 9.58748C14.4375 10.1125 14.7 10.75 14.7 11.5C14.7 12.25 14.4375 12.8875 13.9125 13.4125C13.3875 13.9375 12.75 14.2 12 14.2ZM12.0013 18.5C9.70171 18.5 7.60639 17.8657 5.71535 16.5971C3.82434 15.3285 2.43204 13.6295 1.53845 11.5C2.43204 9.37049 3.82389 7.67146 5.714 6.40288C7.6041 5.13429 9.69896 4.5 11.9986 4.5C14.2982 4.5 16.3935 5.13429 18.2846 6.40288C20.1756 7.67146 21.5679 9.37049 22.4615 11.5C21.5679 13.6295 20.176 15.3285 18.2859 16.5971C16.3958 17.8657 14.3009 18.5 12.0013 18.5ZM12 17C13.8833 17 15.6125 16.5041 17.1875 15.5125C18.7625 14.5208 19.9666 13.1833 20.8 11.5C19.9666 9.81664 18.7625 8.47914 17.1875 7.48748C15.6125 6.49581 13.8833 5.99998 12 5.99998C10.1166 5.99998 8.38745 6.49581 6.81245 7.48748C5.23745 8.47914 4.03329 9.81664 3.19995 11.5C4.03329 13.1833 5.23745 14.5208 6.81245 15.5125C8.38745 16.5041 10.1166 17 12 17Z" fill="#EA1515"/>
</g>
</svg>
